<svg width="125" height="22" viewBox="0 0 125 22" fill="none" xmlns="http://www.w3.org/2000/svg">
<g clip-path="url(#clip0_144_8)">
<path d="M46.9019 11C46.9019 4.93463 41.7834 0 35.5021 0C32.8834 0 30.0318 1.33375 27.0109 3.96324C25.5827 5.2064 24.3442 6.5361 23.4143 7.60537C20.1491 3.99235 15.7699 0 11.3998 0C6.1176 0 1.51128 3.63324 0.31268 8.44735C0.314308 8.44331 0.315937 8.43765 0.317565 8.43199C0.315937 8.43765 0.314308 8.4425 0.31268 8.44735C0.104664 9.2825 -0.000333265 10.1397 7.94616e-07 11C7.94616e-07 17.0654 5.03707 22 11.3183 22C13.937 22 16.87 20.6663 19.8909 18.0368C21.3192 16.7936 22.5577 15.4639 23.4876 14.3946C26.7528 18.0076 31.1327 22 35.5029 22C40.7851 22 45.3914 18.3668 46.59 13.5535C46.7944 12.7333 46.9027 11.8784 46.9027 11.0008L46.9019 11ZM24.2904 7.59404C25.3579 6.39779 26.4165 5.34147 27.4408 4.45015C30.3396 1.92662 33.052 0.647059 35.5021 0.647059C41.4292 0.647059 46.2504 5.29132 46.2504 11C46.2504 11.8007 46.1535 12.6007 45.9614 13.3788C45.9304 13.4685 45.5355 14.5426 44.4102 15.5868C42.9486 16.9432 40.9675 17.6315 38.5214 17.6324C41.1523 16.4968 42.9926 13.9457 42.9926 11C42.9926 6.99551 39.6321 3.73838 35.5021 3.73838C33.8923 3.73838 31.9218 4.74375 29.6426 6.72779C28.6175 7.62074 27.5793 8.67059 26.4833 9.92507L26.0533 10.4152L23.8507 8.07529L24.2904 7.59485V7.59404ZM20.3942 11.1084C19.5245 12.134 18.2706 13.5316 16.8293 14.7861C14.1438 17.1244 12.3981 17.6146 11.3998 17.6146C7.63295 17.6146 4.56072 14.647 4.56072 11C4.56072 7.35301 7.6297 4.40809 11.3998 4.38544C11.5366 4.38544 11.7019 4.39919 11.9022 4.43478C13.845 5.17485 15.5802 6.35574 16.6282 7.30853C17.4709 8.07529 18.9977 9.64441 20.3934 11.1076L20.3942 11.1084ZM22.6114 14.406C21.5431 15.6022 20.4854 16.6585 19.461 17.5499C16.6029 20.0378 13.7872 21.3529 11.3183 21.3529C8.45618 21.3529 5.77235 20.2732 3.75948 18.3126C1.75475 16.3601 0.651415 13.7629 0.651415 11C0.651415 10.1993 0.749128 9.39853 0.940481 8.62125C0.973051 8.52824 1.36797 7.45574 2.49166 6.41316C3.95327 5.05677 5.93439 4.36846 8.38045 4.36765C5.74955 5.50324 3.9093 8.05427 3.9093 11C3.9093 15.0045 7.26979 18.2616 11.3998 18.2616C13.0096 18.2616 14.9801 17.2563 17.2592 15.2722C18.2844 14.3793 19.3226 13.3294 20.4186 12.0749L20.8477 11.584C20.8477 11.584 23.0177 13.8891 23.0414 13.915L22.6106 14.406H22.6114ZM26.5077 10.8916C27.3773 9.86603 28.6313 8.46838 30.0726 7.2139C32.758 4.87559 34.5038 4.38544 35.5021 4.38544C39.2689 4.38544 42.3411 7.35301 42.3411 11C42.3411 14.647 39.2722 17.5919 35.5021 17.6146C35.3653 17.6146 35.2 17.6008 34.9989 17.5652C35.0005 17.5652 35.0013 17.566 35.003 17.5668C33.0585 16.8268 31.3216 15.6451 30.2729 14.6915C29.4301 13.9247 27.9033 12.3556 26.5069 10.8924L26.5077 10.8916ZM46.5851 13.5648C46.5867 13.5607 46.5875 13.5559 46.5892 13.5526C46.5884 13.5559 46.5867 13.5607 46.5851 13.5648ZM51.8591 9.98816V0.848456H54.3378V9.98816H51.8591ZM61.9821 9.98816L58.7894 4.56096V9.98816H56.3889V0.848456H59.1924L62.0603 5.8114V0.848456H64.4738V9.98816H61.9821ZM70.8585 3.13015V9.98816H68.4189V3.13015H65.7717V0.848456H73.5195V3.13015H70.8593H70.8585ZM74.8166 9.98816V0.848456H80.7086V2.93684H77.2309V4.38059H80.3976V6.39132H77.2309V7.86096H80.7347V9.98816H74.8166ZM82.4601 9.98816V0.848456H86.3401C88.2089 0.848456 89.4286 2.08596 89.4286 3.78772C89.4286 5.02522 88.7406 5.94081 87.7285 6.34037L89.4677 9.98816H86.8336L85.3801 6.67522H84.8736V9.98816H82.4601ZM85.8866 4.81897C86.6137 4.81897 86.9899 4.40647 86.9899 3.82654C86.9899 3.24662 86.6137 2.84706 85.8866 2.84706H84.8744V4.81897H85.8866ZM96.6064 9.98816L93.4137 4.56096V9.98816H91.0124V0.848456H93.8159L96.6838 5.8114V0.848456H99.0973V9.98816H96.6056H96.6064ZM101.148 9.98816V0.848456H107.04V2.93684H103.563V4.38059H106.729V6.39132H103.563V7.86096H107.067V9.98816H101.148ZM113.533 3.13015V9.98816H111.093V3.13015H108.446V0.848456H116.194V3.13015H113.533H113.533ZM53.6269 17.0265C53.6269 18.5479 54.7172 19.4239 55.8328 19.4239C57.1046 19.4239 57.6494 18.6377 57.844 17.9931L60.128 18.6507C59.7649 20.0038 58.5451 21.7832 55.8197 21.7832C53.2629 21.7832 51.1092 19.9399 51.1092 17.0395C51.1092 14.139 53.3028 12.2569 55.7945 12.2569C58.4417 12.2569 59.6492 13.8551 60.0254 15.2221L57.7805 15.9824C57.6119 15.3765 57.1185 14.5774 55.8205 14.5774C54.7823 14.5774 53.6277 15.3636 53.6277 17.0265H53.6269ZM65.6308 12.2569C68.1616 12.2569 70.3544 14.0614 70.3544 17.0265C70.3544 19.9917 68.1608 21.7962 65.6308 21.7962C63.1009 21.7962 60.9073 19.9917 60.9073 17.0265C60.9073 14.0614 63.1009 12.2569 65.6308 12.2569ZM65.6308 19.4627C66.7081 19.4627 67.8497 18.7024 67.8497 17.0136C67.8497 15.3248 66.7073 14.5904 65.6308 14.5904C64.5544 14.5904 63.412 15.3507 63.412 17.0136C63.412 18.6765 64.5544 19.4627 65.6308 19.4627ZM79.9774 21.5899V15.9306L77.9662 21.5899H76.0453L74.0471 15.9953V21.5899H71.737V12.4502H74.9689L77.0322 18.019L79.0052 12.4502H82.3274V21.5899H79.9783H79.9774ZM86.7904 18.4711V21.5907H84.3769V12.451H88.0493C89.9701 12.451 91.2811 13.7015 91.2811 15.4671C91.2811 17.2328 89.9701 18.4711 88.0493 18.4711H86.7904ZM87.7374 16.4733C88.3734 16.4733 88.8408 16.0996 88.8408 15.4809C88.8408 14.8621 88.3734 14.4755 87.7374 14.4755H86.8026V16.4733H87.7374ZM92.5392 18.239V12.451H94.9657V18.1621C94.9657 19.0648 95.4331 19.5412 96.2376 19.5412C97.0421 19.5412 97.4964 19.064 97.4964 18.1621V12.451H99.9229V18.239C99.9229 20.5336 98.3783 21.797 96.2376 21.797C94.0969 21.797 92.5392 20.5336 92.5392 18.239ZM106.308 14.7327V21.5907H103.869V14.7327H101.222V12.451H108.969V14.7327H106.309H106.308ZM110.267 21.5899V12.4502H116.159V14.5386H112.681V15.9824H115.848V17.9931H112.681V19.4627H116.185V21.5899H110.267ZM117.992 21.5899V12.4502H121.872C123.74 12.4502 124.96 13.6877 124.96 15.3895C124.96 16.627 124.272 17.5426 123.26 17.9421L124.999 21.5899H122.365L120.912 18.277H120.405V21.5899H117.992ZM121.418 16.4207C122.145 16.4207 122.521 16.0082 122.521 15.4283C122.521 14.8484 122.145 14.4488 121.418 14.4488H120.406V16.4207H121.418Z" fill="white"/>
</g>
<defs>
<clipPath id="clip0_144_8">
<rect width="125" height="22" fill="white"/>
</clipPath>
</defs>
</svg>
